<svg width="72" height="72" viewBox="0 0 72 72" fill="none" xmlns="http://www.w3.org/2000/svg">
<g clip-path="url(#clip0_6179_20560)">
<path d="M68 4H4V68H68V4Z" fill="#797EF3"/>
<path d="M43.6684 68H20.165C20.7346 65.9123 21.1967 64.0627 21.2825 63.6749C22.0313 60.2432 22.5049 56.7616 22.6943 53.2685C22.7929 51.4573 22.8159 49.6423 22.7622 47.8298C22.725 46.5741 22.1529 44.5671 22.7225 43.3703C23.813 41.0752 28.8831 43.7696 31.1346 44.0627C35.0015 44.5671 38.9337 44.3303 42.8134 44.0947C42.2233 52.0627 42.5126 60.0832 43.6684 68Z" fill="#797EF3"/>
<path d="M60.0191 39.8259C60.3814 41.4656 61.0777 43.0554 61.0905 44.736C60.7423 44.8205 60.4185 44.5427 60.1791 44.2765C57.6486 41.4566 56.8447 37.5206 56.3135 33.769C55.9859 31.4522 55.1449 27.6045 56.2431 25.4106C56.8025 24.2931 58.8275 22.9939 59.9846 24.0691C61.3529 25.3427 60.2495 29.833 60.0678 31.4675C59.7593 34.24 59.4086 37.0662 60.0191 39.8259Z" fill="#444DF2"/>
<path d="M40.0601 8.28029C38.981 7.66717 37.861 7.12573 36.7001 6.67005C31.7426 4.72701 25.9199 4.52989 21.2249 7.04509C17.0943 9.25821 14.2015 13.3529 12.6437 17.7728C11.086 22.1926 10.7429 26.9452 10.7186 31.63C10.6879 37.326 11.109 43.0182 11.8105 48.6694C12.2585 52.2841 13.3772 61.5769 18.2143 61.7689C24.1522 62.0032 30.1119 61.7088 35.9986 60.8947C41.0124 60.2022 49.2735 64.0192 53.2799 60.576C55.6722 58.519 54.7993 51.127 55.8258 48.1433C57.0738 44.5184 58.0044 40.7488 58.1157 36.9164C58.2629 31.8643 56.9484 26.7763 54.3717 22.4281C53.0009 20.1152 51.2895 18.0185 49.4642 16.0448C46.6956 13.0521 43.589 10.2848 40.0601 8.28029Z" fill="#444DF2"/>
<path d="M43.6684 68H20.165C20.7346 65.9123 21.1967 64.0627 21.2825 63.6749C22.0313 60.2432 22.5049 56.7616 22.6943 53.2685C22.7929 51.4573 22.8159 49.6423 22.7622 47.8298C22.725 46.5741 22.1529 44.5671 22.7225 43.3703C23.813 41.0752 28.8831 43.7696 31.1346 44.0627C35.0015 44.5671 38.9337 44.3303 42.8134 44.0947C42.2233 52.0627 42.5126 60.0832 43.6684 68Z" fill="#E8AE8E"/>
<path d="M23.0375 51.8964C26.9491 56.0974 32.3354 58.761 38.1171 60.2535C43.6211 61.6743 50.1018 61.842 54.3156 58.0263C57.856 54.8212 58.8211 49.691 59.1847 44.9281C59.6199 39.2218 59.4816 33.4874 59.232 27.771C59.1232 25.2852 58.9914 22.7828 58.3949 20.3687C57.4925 16.7182 55.2384 11.867 51.6698 10.2465C47.3587 8.28935 42.1939 7.77351 37.5296 8.30087C34.1543 8.68231 30.72 9.08679 27.6173 10.4654C24.8295 11.7044 21.216 13.2852 19.7274 16.0513C17.8394 19.5585 16.7655 23.6135 16.3085 27.5534C15.6147 33.5284 16.425 39.6954 18.7482 45.2506C19.8119 47.8017 21.2749 50.0046 23.0375 51.8964Z" fill="#F4C19F"/>
<path d="M19.7543 28.5696C18.9363 27.6032 17.7933 26.9594 16.233 26.9235C13.9405 26.871 11.7453 28.4506 10.9159 30.5894C9.58083 34.0339 11.8131 38.2374 14.8224 40.0141C17.4951 41.591 20.6323 40.672 21.4119 37.5526C21.7575 36.169 21.6218 34.7174 21.4823 33.2979C21.3159 31.5878 20.8039 29.8112 19.7543 28.5696Z" fill="#F4C19F"/>
<path d="M14.7303 37.1354C14.3694 37.1354 14.0622 36.8589 14.0302 36.4928C13.9265 35.2999 14.3937 34.5831 14.8033 34.1914C15.5495 33.4784 16.6388 33.2928 17.4286 33.2634C17.3095 32.9933 17.1354 32.768 16.9038 32.5837C15.8516 31.7466 13.9598 32.0052 13.9406 32.0077C13.5566 32.0666 13.1969 31.8016 13.1393 31.4176C13.0804 31.0336 13.3454 30.674 13.7294 30.6164C13.8305 30.601 16.2343 30.2541 17.7793 31.4816C18.5191 32.0704 18.9364 32.8999 19.0171 33.9456C19.0337 34.1568 18.953 34.3655 18.7994 34.5114C18.6446 34.6573 18.4334 34.7252 18.2222 34.6983C17.7537 34.6381 16.3982 34.6125 15.7735 35.2116C15.4996 35.4752 15.3883 35.8541 15.4331 36.3712C15.4663 36.7591 15.1796 37.0996 14.7931 37.1341C14.7713 37.1341 14.7508 37.1354 14.7303 37.1354Z" fill="#EAAA7F"/>
<path d="M31.3203 25.3325C31.3164 25.3376 31.3139 25.3427 31.31 25.3478C30.8876 25.9661 29.3939 25.9046 28.7487 25.9866C28.2124 26.0544 20.6067 26.7277 20.5708 26.3706C20.8614 29.3338 21.1519 32.2982 21.4425 35.2614C21.8111 39.0272 22.1247 43.072 20.2457 46.3565C20.9331 41.3478 20.0319 36.1331 17.7036 31.6454C16.9625 30.2157 16.0678 28.8256 15.7529 27.2461C15.4828 25.8867 15.6633 24.4787 15.95 23.1232C16.6668 19.7466 18.0505 16.5133 19.9987 13.664C23.5763 8.43392 30.0684 5.76384 36.2316 5.32608C38.9708 5.13152 41.7254 5.15968 44.4595 5.41056C48.3763 5.77024 52.8371 7.04512 55.4227 10.2054C56.9446 12.0666 57.9187 14.304 58.8736 16.5107C59.0911 17.0138 62.1196 26.2797 61.3529 26.112C59.7939 25.7728 58.2361 25.4336 56.6771 25.0944C55.0041 24.7309 53.3299 24.3661 51.6326 24.1421C48.1651 23.6851 44.6591 23.8259 41.1852 24.1306C40.2751 24.2099 34.6009 25.5066 34.1478 24.1997C33.3977 22.0365 32.6463 19.8733 31.8963 17.7101C31.7734 17.3568 31.2575 16.9805 31.1385 17.335C31.1411 18.8211 32.0447 24.2125 31.3203 25.3325Z" fill="#444DF2"/>
<path d="M44.4901 44.1344C44.1023 44.1344 43.7874 43.8208 43.7861 43.433C43.7849 43.0438 44.0985 42.7277 44.4863 42.7264C44.5324 42.7264 49.0303 42.6701 49.2863 40.1766C49.3874 39.1859 49.0905 38.8416 48.5516 38.2182C47.6658 37.1942 46.4537 35.7914 46.5343 31.2499C46.5407 30.8659 46.8543 30.5587 47.2383 30.5587C47.2421 30.5587 47.2473 30.5587 47.2511 30.5587C47.6402 30.5651 47.95 30.8864 47.9423 31.2755C47.8706 35.2794 48.8383 36.3981 49.6165 37.2979C50.2233 37.9994 50.8505 38.7264 50.6866 40.3213C50.3013 44.0691 44.7295 44.1344 44.4927 44.1357C44.4927 44.1344 44.4914 44.1344 44.4901 44.1344Z" fill="#1B1464"/>
<path d="M38.8364 37.3345C39.8629 37.2671 40.6031 35.8131 40.4898 34.0869C40.3765 32.3607 39.4525 31.016 38.4261 31.0833C37.3997 31.1507 36.6595 32.6047 36.7728 34.3309C36.8861 36.0571 37.81 37.4019 38.8364 37.3345Z" fill="#1B1464"/>
<path d="M53.0579 36.9351C54.0843 36.8677 54.8245 35.4137 54.7112 33.6875C54.5979 31.9613 53.674 30.6165 52.6476 30.6839C51.6211 30.7513 50.8809 32.2053 50.9942 33.9315C51.1075 35.6577 52.0314 37.0025 53.0579 36.9351Z" fill="#1B1464"/>
<path d="M56.5617 30.3693C56.4171 30.3693 56.2724 30.3258 56.147 30.2336C53.0737 27.9872 50.3102 28.6861 50.1937 28.7168C49.8187 28.8166 49.4334 28.5952 49.3323 28.2202C49.2312 27.8464 49.45 27.4611 49.8225 27.3574C49.9646 27.319 53.3323 26.432 56.9777 29.0957C57.2913 29.3248 57.3604 29.7651 57.1313 30.08C56.9931 30.2694 56.7793 30.3693 56.5617 30.3693Z" fill="#1B1464"/>
<path d="M31.5736 31.1335C31.4635 31.1335 31.3509 31.1079 31.2459 31.0516C30.9016 30.8698 30.7698 30.4448 30.9515 30.1005C31.0219 29.9674 32.7461 26.8583 40.0511 26.8583C40.1151 26.8583 40.1791 26.8583 40.2443 26.8596C40.6335 26.8621 40.9458 27.1796 40.9432 27.5687C40.9407 27.9552 40.6258 28.2676 40.2392 28.2676C40.2379 28.2676 40.2354 28.2676 40.2341 28.2676C33.7215 28.2202 32.2098 30.7316 32.197 30.7572C32.0715 30.9965 31.8271 31.1335 31.5736 31.1335Z" fill="#1B1464"/>
<path d="M43.319 50.107C37.7472 50.107 34.0403 45.595 33.8739 45.3902C33.6294 45.0881 33.6768 44.6439 33.9801 44.4007C34.2822 44.1563 34.7251 44.2036 34.9696 44.507C35.0272 44.5774 38.9376 49.2993 44.4057 48.6337C44.7923 48.5876 45.143 48.8615 45.1891 49.2481C45.2364 49.6334 44.9612 49.9854 44.5747 50.0314C44.1472 50.0826 43.7273 50.107 43.319 50.107Z" fill="#1B1464"/>
<path d="M42.5038 61.728C34.2977 61.728 25.9188 55.4522 25.5668 55.1846C25.257 54.9504 25.1956 54.5088 25.4311 54.199C25.6654 53.8893 26.107 53.8278 26.418 54.0621C26.5012 54.1248 34.7764 60.3187 42.505 60.3187C42.8942 60.3187 43.209 60.6336 43.209 61.0227C43.209 61.4118 42.8929 61.728 42.5038 61.728Z" fill="#1B1464"/>
</g>
<defs>
<clipPath id="clip0_6179_20560">
<rect x="4" y="4" width="64" height="64" rx="32" fill="white"/>
</clipPath>
</defs>
</svg>
