<svg width="14" height="9" viewBox="0 0 14 9" fill="none" xmlns="http://www.w3.org/2000/svg">
<path d="M7 8.1875C6.83333 8.1875 6.67208 8.15625 6.51625 8.09375C6.35958 8.03125 6.22917 7.94792 6.125 7.84375L0.375 2.09375C0.145833 1.86458 0.03125 1.57292 0.03125 1.21875C0.03125 0.864583 0.145833 0.572916 0.375 0.34375C0.604166 0.114583 0.895833 0 1.25 0C1.60417 0 1.89583 0.114583 2.125 0.34375L7 5.21875L11.875 0.34375C12.1042 0.114583 12.3958 0 12.75 0C13.1042 0 13.3958 0.114583 13.625 0.34375C13.8542 0.572916 13.9688 0.864583 13.9688 1.21875C13.9688 1.57292 13.8542 1.86458 13.625 2.09375L7.875 7.84375C7.75 7.96875 7.61458 8.05708 7.46875 8.10875C7.32292 8.16125 7.16667 8.1875 7 8.1875Z" fill="black"/>
</svg>
